HIERARCHY
ROOT hip
{
	OFFSET 0.000000 0.000000 0.000000 
	CHANNELS 6 Xposition Yposition Zposition Xrotation Zrotation Yrotation
	JOINT abdomen
	{
		OFFSET 0.000000 3.402643 0.000000 
		CHANNELS 3 Xrotation Zrotation Yrotation
		JOINT chest
		{
			OFFSET 0.000000 8.438565 -0.680529 
			CHANNELS 3 Xrotation Zrotation Yrotation
			JOINT neck
			{
				OFFSET 0.000000 10.207942 -0.272212 
				CHANNELS 3 Xrotation Zrotation Yrotation
				JOINT head
				{
					OFFSET 0.000000 3.130431 0.000000 
					CHANNELS 3 Xrotation Zrotation Yrotation
					End Site
					{
						OFFSET 0.000000 3.130435 0.000000 
					}
				}
			}
			JOINT lCollar
			{
				OFFSET 3.470700 6.669187 -0.816635 
				CHANNELS 3 Yrotation Zrotation Xrotation
				JOINT lShldr
				{
					OFFSET 3.198488 0.000000 0.000000 
					CHANNELS 3 Zrotation Yrotation Xrotation
					JOINT lForeArm
					{
						OFFSET 10.139888 0.000000 0.000000 
						CHANNELS 3 Yrotation Zrotation Xrotation
						JOINT lHand
						{
							OFFSET 8.370511 0.000000 0.000000 
							CHANNELS 3 Zrotation Yrotation Xrotation
							End Site
							{
								OFFSET 4.083176 0.000000 0.000000 
							}
						}
					}
				}
			}
			JOINT rCollar
			{
				OFFSET -3.470700 6.669187 -0.816635 
				CHANNELS 3 Yrotation Zrotation Xrotation
				JOINT rShldr
				{
					OFFSET -3.198488 0.000000 0.000000 
					CHANNELS 3 Zrotation Yrotation Xrotation
					JOINT rForeArm
					{
						OFFSET -10.139888 0.000000 0.000000 
						CHANNELS 3 Yrotation Zrotation Xrotation
						JOINT rHand
						{
							OFFSET -8.370511 0.000000 0.000000 
							CHANNELS 3 Zrotation Yrotation Xrotation
							End Site
							{
								OFFSET -4.083176 0.000000 0.000000 
							}
						}
					}
				}
			}
		}
	}
	JOINT lThigh
	{
		OFFSET 5.308129 -1.633274 1.361059 
		CHANNELS 3 Xrotation Zrotation Yrotation
		JOINT lShin
		{
			OFFSET -2.041588 -20.007561 0.000000 
			CHANNELS 3 Xrotation Zrotation Yrotation
			JOINT lFoot
			{
				OFFSET 0.000000 -19.190928 -1.224953 
				CHANNELS 3 Xrotation Yrotation Zrotation
				End Site
				{
					OFFSET 0.000000 -2.449906 4.627600 
				}
			}
		}
	}
	JOINT rThigh
	{
		OFFSET -5.308129 -1.633274 1.361059 
		CHANNELS 3 Xrotation Zrotation Yrotation
		JOINT rShin
		{
			OFFSET 2.041588 -20.007561 0.000000 
			CHANNELS 3 Xrotation Zrotation Yrotation
			JOINT rFoot
			{
				OFFSET 0.000000 -19.190928 -1.224953 
				CHANNELS 3 Xrotation Yrotation Zrotation
				End Site
				{
					OFFSET 0.000000 -2.449906 4.627600 
				}
			}
		}
	}
}
MOTION
Frames: 14
Frame Time: 0.033333
-88.935349 41.972645 -88.935349 153.404648 -0.104404 69.041206 80.882263 -0.525195 9.230149 30.435549 1.996570 -18.607395 -8.544922 -0.001505 -0.009645 43.996864 -2.880578 13.301149 2.000000 -2.000000 0.000000 16.991056 -41.838478 -99.467400 -103.505196 -0.561556 9.113599 -10.012520 -4.400741 19.406620 -2.000000 2.000000 0.000000 -60.723324 82.021889 -91.999687 106.734573 0.577911 9.143195 44.715698 6.257219 -54.988342 -18.532345 19.840340 4.884102 116.591248 4.272977 -3.613232 -42.990833 -9.207408 -8.114240 -45.441879 -4.237839 -2.629303 110.649849 -3.925608 3.816933 -56.472626 -2.837871 -0.602845 
-95.892181 41.091038 -95.892181 157.701981 -10.328052 71.473656 80.393166 -5.822298 15.268666 26.377823 0.978890 -18.798485 -8.544922 -0.001505 -0.009645 45.458118 5.450818 12.500950 2.000000 -2.000000 0.000000 23.286581 -46.290382 -93.973518 -101.758377 -0.559047 9.101239 -11.373107 -5.696299 8.100171 -2.000000 2.000000 0.000000 -19.342438 79.907730 -53.606407 104.973396 0.577229 9.135563 42.891663 6.325925 -60.463062 -22.185957 20.603855 4.216096 116.551849 4.264255 -3.626725 -45.023403 -9.026778 -8.947701 -47.380722 -4.492119 -1.960887 116.033180 -4.267441 3.640106 -55.144348 -3.043833 0.147080 
-103.084534 39.728748 -103.084534 161.971222 -20.171751 73.466591 78.454903 -11.860145 21.418539 21.303061 -0.238582 -18.649103 -8.544922 -0.001505 -0.009645 46.647961 14.578098 10.681615 2.000000 -2.000000 0.000000 29.712473 -52.448174 -87.795593 -99.683197 -0.549790 9.075755 -12.574582 -7.435435 -4.586802 -2.000000 2.000000 0.000000 8.047047 74.382011 -29.606890 102.109940 0.556014 9.099797 40.668468 5.658114 -65.569450 -26.508463 21.597025 3.122135 115.066216 4.166533 -3.687568 -46.415218 -8.776495 -10.258517 -48.239365 -4.745374 -1.170324 120.472382 -4.548990 3.444349 -52.875828 -3.086510 1.132223 
-109.725815 38.366467 -109.725815 -12.107079 -150.158478 -105.686638 75.559151 -16.426805 25.786304 16.528318 -1.313637 -18.210085 -8.544922 -0.001505 -0.009645 45.850403 21.457239 7.614266 2.000000 -2.000000 0.000000 35.190514 -57.993866 -82.299782 -97.313393 -0.544202 9.056325 -13.411454 -9.569292 -18.301167 -2.000000 2.000000 0.000000 19.987070 68.862244 -19.548960 98.331726 0.541680 9.070140 38.222618 4.278523 -70.294907 -31.447191 22.718801 1.670391 112.623489 4.019407 -3.767500 -47.083942 -8.354164 -11.906862 -48.255833 -4.989666 -0.236359 124.120941 -4.754300 3.295516 -50.066101 -2.944002 2.201739 
-114.714401 37.645256 -114.714401 -2.150767 -140.663803 -107.612129 73.024193 -17.289663 26.475277 13.399333 -1.894747 -17.651697 -8.544922 -0.001505 -0.009645 41.772762 23.110146 4.143125 2.000000 -2.000000 0.000000 37.808521 -60.118881 -77.271225 -94.725517 -0.536486 9.034391 -13.703776 -11.926183 -32.754227 -2.000000 2.000000 0.000000 23.240849 67.066689 -15.092213 93.782814 0.528869 9.022053 35.690948 2.282943 -74.588303 -37.025818 23.805220 -0.112981 109.683266 3.844028 -3.852739 -47.031948 -7.712258 -13.673756 -47.645672 -5.243990 0.740176 126.998650 -4.919693 3.150270 -46.987076 -2.544602 3.360578 
-118.535866 37.885658 -118.535858 13.849711 -131.511017 -114.334595 71.036903 -14.956224 23.818010 11.646858 -2.062525 -17.039078 -8.544922 -0.001505 -0.009645 35.756950 20.274391 2.022639 2.000000 -2.000000 0.000000 36.940510 -59.129078 -71.053894 -91.909271 -0.527312 9.003455 -13.380852 -14.352010 -47.666172 -2.000000 2.000000 0.000000 23.071589 69.150406 -11.728613 88.643883 0.514423 8.972604 33.143063 -0.236237 -78.415123 -43.183926 24.746368 -2.232862 106.744019 3.646823 -3.942634 -46.209015 -6.912048 -15.411052 -46.565422 -5.497671 1.748309 129.270020 -5.019060 3.046796 -43.985271 -1.954119 4.507159 
-122.162048 38.286331 -122.162048 -142.274323 -55.818428 51.794945 68.708260 -11.582799 19.709423 10.112887 -2.119107 -16.334763 -8.544922 -0.001505 -0.009645 29.694422 16.090738 1.768382 2.000000 -2.000000 0.000000 34.242516 -57.515377 -63.335960 -88.913803 -0.516245 8.971618 -12.411497 -16.583954 -62.701847 -2.000000 2.000000 0.000000 24.464457 72.796509 -6.395414 83.052086 0.511017 8.913323 30.673273 -3.168595 -81.793159 -49.890488 25.389914 -4.611477 104.255386 3.474165 -3.995511 -44.590584 -6.104380 -16.926060 -45.285824 -5.781088 2.787316 130.993118 -5.107243 2.973601 -41.436920 -1.239496 5.548590 
-125.502800 37.965794 -125.502800 -110.616318 -58.157047 30.715694 65.923004 -7.684545 14.334472 8.787311 -2.074231 -15.547910 -8.544922 -0.001505 -0.009645 23.651001 11.692750 3.748912 2.000000 -2.000000 0.000000 30.572552 -55.356422 -54.673130 -85.791100 -0.517139 8.936195 -10.905518 -18.470257 -77.552322 -2.000000 2.000000 0.000000 30.393721 77.637329 3.286104 77.191010 0.502003 8.845800 28.324242 -6.386265 -84.744926 -57.050415 25.654325 -7.149951 102.683151 3.369202 -4.055427 -42.277351 -5.467202 -18.066959 -44.005497 -6.093606 3.773382 132.247681 -5.165484 2.889988 -39.618279 -0.421129 6.520471 
-128.603561 36.523247 -128.603577 -79.782303 -53.676559 11.020080 62.595440 -3.773529 7.958250 7.658746 -1.947221 -14.725571 -8.544922 -0.001505 -0.009645 17.643337 8.226550 7.828246 2.000000 -2.000000 0.000000 26.583229 -52.887218 -45.621647 -82.551590 -0.506955 8.906669 -9.039223 -19.840534 -91.803864 -2.000000 2.000000 0.000000 52.168957 82.676498 28.247486 71.228638 0.510409 8.786637 26.128939 -9.791527 -87.303902 -64.501030 25.417021 -9.607516 102.536537 3.391025 -4.035573 -39.277298 -5.285634 -18.782883 -42.904678 -6.405755 4.701257 133.168716 -5.221579 2.838256 -38.858421 0.294483 7.394949 
-131.473022 33.798676 -131.473022 -56.663914 -44.563427 -0.354856 58.804581 -0.283089 0.830129 6.706709 -1.777462 -13.892354 -8.544922 -0.001505 -0.009645 11.837937 6.542003 13.395162 2.000000 -2.000000 0.000000 22.829390 -50.276253 -36.639652 -79.266220 -0.507463 8.876103 -7.040438 -20.686182 -105.007637 -2.000000 2.000000 0.000000 -66.946915 96.274574 -88.588097 65.313271 0.522364 8.735031 24.115963 -13.242729 -89.542389 -89.209404 19.423710 -15.761456 121.851227 4.602215 -3.406358 -7.863847 -13.353360 -12.522960 -42.232780 -6.718228 5.597212 133.815414 -5.260864 2.803410 -39.476830 0.823308 8.181426 
-134.107834 30.312635 -134.107834 -39.852615 -33.773403 -4.812424 54.739586 2.415806 -6.711421 5.939038 -1.555212 -13.087989 -8.544922 -0.001505 -0.009645 6.606642 7.017605 19.589087 2.000000 -2.000000 0.000000 19.520714 -47.750607 -28.095837 -75.934898 -0.511094 8.836934 -5.131492 -21.063709 -116.721291 -2.000000 2.000000 0.000000 -31.933043 101.421677 -52.281612 59.637749 0.532398 8.673733 22.319344 -16.628246 -91.508919 -96.161812 15.586131 -14.671538 122.114861 4.623395 -3.404772 -3.318335 -11.758174 -11.408273 -41.641834 -7.040671 6.560449 132.717911 -5.202010 2.864699 -43.843956 0.640259 9.210529 
-136.466980 27.162264 -136.466980 -26.730829 -23.183794 -5.125629 50.700699 4.195692 -14.187058 5.315614 -1.319861 -12.340978 -8.544922 -0.001505 -0.009645 2.337665 9.437770 25.514084 2.000000 -2.000000 0.000000 16.795715 -45.573387 -20.381231 -72.614983 -0.511144 8.804305 -3.510245 -21.087124 -126.512505 -2.000000 2.000000 0.000000 -20.833574 107.895874 -40.844345 54.319691 0.556006 8.623374 20.780258 -19.828749 -93.285843 -102.074402 12.002356 -12.689581 120.569397 4.530704 -3.474187 -1.453573 -9.336419 -10.609589 -40.699512 -7.412105 7.598331 129.015579 -4.999489 3.056668 -52.321800 -0.785870 10.366252 
-138.665878 25.038675 -138.665878 -15.833941 -13.861600 -3.204005 47.025318 5.068094 -21.094223 4.844334 -1.100109 -11.672731 -8.544922 -0.001505 -0.009645 -0.812910 13.130359 30.524925 2.000000 -2.000000 0.000000 14.875322 -44.461903 -14.009778 -69.330765 -0.513190 8.773541 -2.280724 -20.933500 -133.975754 -2.000000 2.000000 0.000000 -15.647958 114.034187 -36.080410 49.542683 0.576040 8.571553 19.531809 -22.739626 -94.962395 -106.658630 8.964453 -10.222929 117.783371 4.359423 -3.570122 -1.361841 -6.810506 -9.672359 -39.430794 -7.822004 8.568628 123.739449 -4.734702 3.308897 -62.253365 -3.225501 11.045301 
-140.603226 24.262346 -140.603226 -6.770532 -6.371829 -0.348996 44.040035 5.305984 -26.876148 4.503825 -0.905232 -11.109101 -8.544922 -0.001505 -0.009645 -2.983651 17.216528 34.264481 2.000000 -2.000000 0.000000 13.541744 -43.971111 -9.063412 -66.119644 -0.525100 8.737329 -1.520112 -20.761711 -138.716690 -2.000000 2.000000 0.000000 -12.300879 119.132935 -33.577423 45.488674 0.598996 8.530906 18.620220 -25.237495 -96.634071 -109.527443 6.621274 -7.797201 114.313164 4.150154 -3.709025 -2.042255 -4.645386 -8.558256 -37.865788 -8.222549 9.316570 117.881371 -4.384084 3.548833 -71.071991 -5.938911 10.798706 
